<mxfile host="Electron" agent="Mozilla/5.0 (X11; Linux x86_64) AppleWebKit/537.36 (KHTML, like Gecko) draw.io/24.7.5 Chrome/126.0.6478.183 Electron/31.3.0 Safari/537.36" version="24.7.5">
  <diagram name="Page-1" id="HtDMB8GBCXyzhwlQVmr2">
    <mxGraphModel dx="480" dy="590" grid="0" gridSize="10" guides="1" tooltips="1" connect="1" arrows="1" fold="1" page="1" pageScale="1" pageWidth="850" pageHeight="1100" math="1" shadow="0">
      <root>
        <mxCell id="0" />
        <mxCell id="1" parent="0" />
        <mxCell id="dFCPVr-EJcx0k2NFLM8W-7" value="&lt;span style=&quot;font-size: 25px; text-wrap: wrap;&quot;&gt;\(x_1\)&lt;/span&gt;" style="text;html=1;align=center;verticalAlign=middle;resizable=0;points=[];autosize=1;strokeColor=none;fillColor=none;" vertex="1" parent="1">
          <mxGeometry x="135" y="323" width="90" height="40" as="geometry" />
        </mxCell>
        <mxCell id="dFCPVr-EJcx0k2NFLM8W-8" value="&lt;span style=&quot;font-size: 25px; text-wrap: wrap;&quot;&gt;\(x_2\)&lt;/span&gt;" style="text;html=1;align=center;verticalAlign=middle;resizable=0;points=[];autosize=1;strokeColor=none;fillColor=none;" vertex="1" parent="1">
          <mxGeometry x="136" y="369" width="89" height="42" as="geometry" />
        </mxCell>
        <mxCell id="dFCPVr-EJcx0k2NFLM8W-9" value="&lt;span style=&quot;font-size: 25px; text-wrap: wrap;&quot;&gt;\(x_n\)&lt;/span&gt;" style="text;html=1;align=center;verticalAlign=middle;resizable=0;points=[];autosize=1;strokeColor=none;fillColor=none;" vertex="1" parent="1">
          <mxGeometry x="136" y="463" width="89" height="42" as="geometry" />
        </mxCell>
        <mxCell id="dFCPVr-EJcx0k2NFLM8W-11" value="&lt;span style=&quot;font-size: 25px; text-wrap: wrap;&quot;&gt;\(\vdots\)&lt;/span&gt;" style="text;html=1;align=center;verticalAlign=middle;resizable=0;points=[];autosize=1;strokeColor=none;fillColor=none;" vertex="1" parent="1">
          <mxGeometry x="123" y="416" width="115" height="42" as="geometry" />
        </mxCell>
      </root>
    </mxGraphModel>
  </diagram>
</mxfile>
